<svg width="40" height="41" viewBox="0 0 40 41" fill="none" xmlns="http://www.w3.org/2000/svg">
<g clip-path="url(#clip0)">
<path d="M8.75239 16.3576H10.4849C11.5244 16.3576 12.2174 17.0557 12.2174 18.1029H13.9499C13.9499 16.1831 12.3907 14.6124 10.4849 14.6124H8.75239C6.84657 14.6124 5.28735 16.1831 5.28735 18.1029V23.3386C5.28735 25.2583 6.84657 26.8291 8.75239 26.8291H10.4849C12.3907 26.8291 13.9499 25.2583 13.9499 23.3386H12.2174C12.2174 24.3858 11.5244 25.0839 10.4849 25.0839H8.75239C7.71288 25.0839 7.01987 24.3858 7.01987 23.3386V18.1029C7.01987 17.0557 7.71288 16.3576 8.75239 16.3576Z" fill="black"/>
<path d="M29.5427 16.3576H31.2752C32.3147 16.3576 33.0077 17.2302 33.0077 18.1029H34.7402C34.7402 16.1831 33.1809 14.6124 31.2752 14.6124H29.5427C27.6369 14.6124 26.0776 16.1831 26.0776 18.1029C26.0776 20.0226 27.6369 21.5934 29.5427 21.5934H31.2752C32.3147 21.5934 33.0077 22.2915 33.0077 23.3386C33.0077 24.3858 32.3147 25.0839 31.2752 25.0839H29.5427C28.5032 25.0839 27.8102 24.2113 27.8102 23.3386H26.0776C26.0776 25.2583 27.6369 26.8291 29.5427 26.8291H31.2752C33.1809 26.8291 34.7402 25.2583 34.7402 23.3386C34.7402 21.4189 33.1809 19.8481 31.2752 19.8481H29.5427C28.5032 19.8481 27.8102 19.15 27.8102 18.1029C27.8102 17.0557 28.5032 16.3576 29.5427 16.3576Z" fill="black"/>
<path d="M19.1477 16.3576H20.8802C21.9197 16.3576 22.6127 17.2302 22.6127 18.1029H24.3452C24.3452 16.1831 22.7859 14.6124 20.8802 14.6124H19.1477C17.2418 14.6124 15.6826 16.1831 15.6826 18.1029C15.6826 20.0226 17.2418 21.5934 19.1477 21.5934H20.8802C21.9197 21.5934 22.6127 22.2915 22.6127 23.3386C22.6127 24.3858 21.9197 25.0839 20.8802 25.0839H19.1477C18.1081 25.0839 17.4151 24.2113 17.4151 23.3386H15.6826C15.6826 25.2583 17.2418 26.8291 19.1477 26.8291H20.8802C22.7859 26.8291 24.3452 25.2583 24.3452 23.3386C24.3452 21.4189 22.7859 19.8481 20.8802 19.8481H19.1477C18.1081 19.8481 17.4151 19.15 17.4151 18.1029C17.4151 17.0557 18.1081 16.3576 19.1477 16.3576Z" fill="black"/>
<path d="M34.7402 9.37668H5.2874C2.34207 9.37668 0.0898438 11.6454 0.0898438 14.6124V26.8291C0.0898438 29.7961 2.34207 32.0648 5.2874 32.0648H34.7402C37.6855 32.0648 39.9378 29.7961 39.9378 26.8291V14.6124C39.9378 11.6454 37.6855 9.37668 34.7402 9.37668ZM38.2052 26.8291C38.2052 28.7488 36.6459 30.3196 34.7402 30.3196H5.2874C3.38158 30.3196 1.82236 28.7488 1.82236 26.8291V14.6124C1.82236 12.6926 3.38158 11.1219 5.2874 11.1219H34.7402C36.6459 11.1219 38.2052 12.6926 38.2052 14.6124V26.8291Z" fill="black"/>
</g>
<defs>
<clipPath id="clip0">
<rect x="0.0898438" y="0.650482" width="39.8479" height="40.1406" fill="white"/>
</clipPath>
</defs>
</svg>
