<svg width="40" height="42" viewBox="0 0 40 42" fill="none" xmlns="http://www.w3.org/2000/svg">
<g clip-path="url(#clip0)">
<path d="M8.33765 10.1182C8.33765 8.52539 8.94754 6.99781 10.0331 5.87152C11.1188 4.74523 12.5912 4.11249 14.1265 4.11249H19.9153V16.1239H14.1265C12.5912 16.1239 11.1188 15.4912 10.0331 14.3649C8.94754 13.2386 8.33765 11.711 8.33765 10.1182Z" stroke="black" stroke-width="2" stroke-linecap="round" stroke-linejoin="round"/>
<path d="M19.915 4.11249H25.7038C26.464 4.11249 27.2168 4.26783 27.9191 4.56965C28.6215 4.87146 29.2596 5.31384 29.7972 5.87152C30.3347 6.42921 30.7611 7.09127 31.052 7.81992C31.3429 8.54857 31.4927 9.32953 31.4927 10.1182C31.4927 10.9069 31.3429 11.6879 31.052 12.4165C30.7611 13.1451 30.3347 13.8072 29.7972 14.3649C29.2596 14.9226 28.6215 15.365 27.9191 15.6668C27.2168 15.9686 26.464 16.1239 25.7038 16.1239H19.915V4.11249Z" stroke="black" stroke-width="2" stroke-linecap="round" stroke-linejoin="round"/>
<path d="M19.915 22.1296C19.915 21.341 20.0648 20.56 20.3557 19.8314C20.6466 19.1027 21.073 18.4406 21.6105 17.883C22.1481 17.3253 22.7862 16.8829 23.4886 16.5811C24.1909 16.2793 24.9436 16.1239 25.7038 16.1239C26.464 16.1239 27.2168 16.2793 27.9191 16.5811C28.6215 16.8829 29.2596 17.3253 29.7972 17.883C30.3347 18.4406 30.7611 19.1027 31.052 19.8314C31.3429 20.56 31.4927 21.341 31.4927 22.1296C31.4927 22.9183 31.3429 23.6993 31.052 24.4279C30.7611 25.1566 30.3347 25.8186 29.7972 26.3763C29.2596 26.934 28.6215 27.3764 27.9191 27.6782C27.2168 27.98 26.464 28.1354 25.7038 28.1354C24.9436 28.1354 24.1909 27.98 23.4886 27.6782C22.7862 27.3764 22.1481 26.934 21.6105 26.3763C21.073 25.8186 20.6466 25.1566 20.3557 24.4279C20.0648 23.6993 19.915 22.9183 19.915 22.1296V22.1296Z" stroke="black" stroke-width="2" stroke-linecap="round" stroke-linejoin="round"/>
<path d="M8.33765 34.1411C8.33765 32.5483 8.94754 31.0207 10.0331 29.8944C11.1188 28.7681 12.5912 28.1354 14.1265 28.1354H19.9153V34.1411C19.9153 35.7339 19.3054 37.2615 18.2198 38.3878C17.1341 39.5141 15.6617 40.1468 14.1265 40.1468C12.5912 40.1468 11.1188 39.5141 10.0331 38.3878C8.94754 37.2615 8.33765 35.7339 8.33765 34.1411Z" stroke="black" stroke-width="2" stroke-linecap="round" stroke-linejoin="round"/>
<path d="M8.33765 22.1296C8.33765 20.5368 8.94754 19.0092 10.0331 17.883C11.1188 16.7567 12.5912 16.1239 14.1265 16.1239H19.9153V28.1354H14.1265C12.5912 28.1354 11.1188 27.5026 10.0331 26.3763C8.94754 25.25 8.33765 23.7225 8.33765 22.1296Z" stroke="black" stroke-width="2" stroke-linecap="round" stroke-linejoin="round"/>
</g>
<defs>
<clipPath id="clip0">
<rect x="0.0678711" y="0.680634" width="39.6947" height="41.1821" fill="white"/>
</clipPath>
</defs>
</svg>
