<svg width="41" height="41" viewBox="0 0 41 41" fill="none" xmlns="http://www.w3.org/2000/svg">
<path d="M8.29148 34.5246L5.49341 3.35365H36.2386L33.4367 34.5196L20.8473 37.9867L8.29148 34.5246Z" fill="#E44F26"/>
<path d="M20.8657 35.3373L31.0394 32.5357L33.4328 5.90292H20.8657V35.3373Z" fill="#F1662A"/>
<path d="M20.8658 17.4629H15.7727L15.4215 13.5481H20.8658V9.72488H20.8521H11.2151L11.3072 10.7515L12.2524 21.2861H20.8658V17.4629Z" fill="#EBEBEB"/>
<path d="M20.8659 27.3914L20.8484 27.3963L16.5623 26.2473L16.2883 23.1983H14.205H12.4243L12.9635 29.1997L20.8484 31.3742L20.8659 31.3692V27.3914Z" fill="#EBEBEB"/>
<path d="M20.8523 17.4629V21.2861H25.5917L25.1459 26.2448L20.8523 27.3951V31.373L28.7434 29.1998L28.8007 28.5541L29.7048 18.4895L29.7994 17.4629H28.7621H20.8523Z" fill="white"/>
<path d="M20.8523 9.72488V12.0997V13.5395V13.5481H30.1369H30.1493L30.2265 12.6897L30.4021 10.7515L30.4943 9.72488H20.8523Z" fill="white"/>
</svg>
