<svg width="58" height="60" viewBox="0 0 58 60" fill="none" xmlns="http://www.w3.org/2000/svg">
<path fill-rule="evenodd" clip-rule="evenodd" d="M53.1619 17.4997C53.1619 10.5972 47.751 4.99969 41.0786 4.99969C33.6981 4.99969 24.2924 4.99969 16.9119 4.99969C10.2395 4.99969 4.82861 10.5972 4.82861 17.4997C4.82861 25.1347 4.82861 34.8647 4.82861 42.4997C4.82861 49.4022 10.2395 54.9997 16.9119 54.9997C24.2924 54.9997 33.6981 54.9997 41.0786 54.9997C47.751 54.9997 53.1619 49.4022 53.1619 42.4997C53.1619 34.8647 53.1619 25.1347 53.1619 17.4997Z" fill="url(#paint0_radial)"/>
<path d="M36.1444 12.5128C41.1977 12.5628 45.8497 17.0503 45.9005 22.6053C45.9174 27.5353 45.9174 32.4653 45.9005 37.3953C45.8522 42.6029 41.5142 47.4354 36.1444 47.4879C31.3787 47.5054 26.6131 47.5054 21.8474 47.4879C16.7917 47.4379 12.1421 42.9504 12.0913 37.3953C12.0744 32.4653 12.0744 27.5353 12.0913 22.6053C12.1372 17.3728 16.4655 12.5653 21.8474 12.5128C26.6131 12.4953 31.3787 12.4953 36.1444 12.5128V12.5128ZM21.9126 14.8753C17.9904 14.8878 14.4137 18.4053 14.3751 22.6203C14.3606 27.5403 14.3606 32.4603 14.3751 37.3803C14.4113 41.3929 17.7294 45.0854 21.8619 45.1254C26.6179 45.1404 31.3739 45.1404 36.1299 45.1254C40.0183 45.0879 43.5781 41.6554 43.6167 37.3803C43.6312 32.4603 43.6312 27.5403 43.6167 22.6203C43.5805 18.5803 40.1972 14.9153 36.1299 14.8753C31.3908 14.8603 26.6517 14.8753 21.9126 14.8753V14.8753Z" fill="white"/>
<path d="M29.0536 21.2503C32.9637 21.2878 36.6081 24.4078 37.3234 28.4053C37.8333 31.2553 36.8715 34.3453 34.8415 36.3503C32.5819 38.5753 29.085 39.3703 26.0883 38.2353C22.7388 36.9678 20.3826 33.3153 20.5396 29.6153C20.7306 25.1953 24.5054 21.2653 28.9956 21.2503C29.0149 21.2503 29.0342 21.2503 29.0536 21.2503V21.2503ZM28.9569 23.6178C26.1656 23.6453 23.5339 25.8353 22.9539 28.6803C22.3666 31.5578 23.9665 34.7503 26.5934 35.8978C29.462 37.1528 33.1667 35.7453 34.5515 32.8153C35.9846 29.7878 34.6336 25.6753 31.608 24.2128C30.7839 23.8153 29.868 23.6153 28.9569 23.6178Z" fill="white"/>
<path fill-rule="evenodd" clip-rule="evenodd" d="M39.875 20.5675C39.875 20.085 39.6889 19.6225 39.3603 19.2825C39.0316 18.9425 38.5845 18.75 38.1181 18.75C38.0818 18.75 38.0432 18.75 38.0069 18.75C37.5405 18.75 37.0934 18.9425 36.7648 19.2825C36.4361 19.6225 36.25 20.085 36.25 20.5675C36.25 20.5875 36.25 20.605 36.25 20.625C36.25 21.1225 36.4409 21.6 36.7817 21.95C37.12 22.3025 37.5816 22.5 38.0625 22.5C39.063 22.5 39.875 21.66 39.875 20.625C39.875 20.605 39.875 20.5875 39.875 20.5675Z" fill="white"/>
<defs>
<radialGradient id="paint0_radial" cx="0" cy="0" r="1" gradientUnits="userSpaceOnUse" gradientTransform="translate(4.82861 53.7497) scale(67.5047 69.8325)">
<stop stop-color="#FF8100"/>
<stop offset="0.19" stop-color="#FF7209"/>
<stop offset="0.32" stop-color="#F55E16"/>
<stop offset="0.48" stop-color="#D92938"/>
<stop offset="1" stop-color="#9100FF"/>
</radialGradient>
</defs>
</svg>
