<svg width="41" height="41" viewBox="0 0 41 41" fill="none" xmlns="http://www.w3.org/2000/svg">
<g clip-path="url(#clip0)">
<path fill-rule="evenodd" clip-rule="evenodd" d="M29.6837 30.1124C28.5863 30.1124 27.5313 30.1124 26.4243 30.1124C27.3939 25.0625 28.3594 20.0335 29.3266 14.996C29.4194 14.9868 29.4958 14.9725 29.5724 14.9725C31.6739 14.972 33.7758 14.9554 35.8769 14.9846C36.4709 14.9928 37.0771 15.0791 37.6534 15.2269C39.5285 15.708 40.6397 17.1154 40.6579 19.0701C40.6794 21.3681 39.8496 23.2895 38.0502 24.7463C36.8842 25.6903 35.5183 26.0205 34.0711 26.0691C32.9757 26.1059 31.8784 26.0902 30.782 26.0845C30.5483 26.0833 30.4429 26.1365 30.3964 26.396C30.1754 27.6279 29.9276 28.855 29.6837 30.1124ZM30.9103 23.7435C32.046 23.6984 33.1035 23.7099 34.1488 23.6013C35.5144 23.4596 36.4854 22.7123 36.8871 21.3588C37.0796 20.7103 37.2006 20.0221 37.2307 19.3462C37.2782 18.2768 36.8337 17.6705 35.7864 17.5251C34.5939 17.3595 33.3786 17.3616 32.1489 17.2894C31.7311 19.4666 31.3298 21.5578 30.9103 23.7435Z" fill="black" fill-opacity="0.62"/>
<path fill-rule="evenodd" clip-rule="evenodd" d="M4.22242 30.1071C3.12597 30.1071 2.05972 30.1071 0.963623 30.1071C1.93176 25.0628 2.89571 20.0404 3.86366 14.9971C3.97197 14.9881 4.07209 14.9725 4.1723 14.9724C6.23456 14.9716 8.29702 14.9567 10.359 14.9836C10.9405 14.9911 11.5338 15.0672 12.0988 15.2069C13.9561 15.666 15.0276 16.8572 15.1688 18.7794C15.4444 22.5311 12.966 25.1775 10.5149 25.7838C9.86089 25.9457 9.17922 26.0356 8.50619 26.0661C7.43792 26.1146 6.36613 26.0904 5.29596 26.0849C5.07547 26.0838 4.98092 26.1414 4.93762 26.3797C4.71407 27.6124 4.46788 28.8408 4.22242 30.1071ZM5.44741 23.7429C6.5758 23.6985 7.63357 23.7109 8.67908 23.6022C10.0798 23.4568 11.0532 22.6811 11.4472 21.2898C11.6247 20.663 11.7414 20.0022 11.7689 19.3519C11.8141 18.2828 11.3715 17.6715 10.3276 17.5263C9.13464 17.3601 7.91883 17.3617 6.68679 17.2888C6.26875 19.466 5.867 21.5581 5.44741 23.7429Z" fill="black" fill-opacity="0.62"/>
<path fill-rule="evenodd" clip-rule="evenodd" d="M17.4452 10.9543C18.5446 10.9543 19.5977 10.9543 20.6785 10.9543C20.4228 12.297 20.1719 13.6155 19.9137 14.9713C20.7928 14.9713 21.6409 14.9413 22.486 14.9797C23.3427 15.0185 24.2143 15.0396 25.0477 15.2191C26.8087 15.5982 27.5497 16.7568 27.2339 18.5788C26.876 20.6449 26.4615 22.7008 26.0715 24.7611C26.0028 25.1238 25.9461 25.4898 25.8555 25.8469C25.8315 25.9414 25.7028 26.0765 25.6204 26.0777C24.6055 26.0936 23.5902 26.0881 22.5316 26.0881C22.7218 25.0874 22.9042 24.132 23.0848 23.1763C23.3468 21.7897 23.6252 20.406 23.8625 19.0152C24.0361 17.998 23.648 17.4937 22.6246 17.4484C21.5837 17.4023 20.5393 17.4382 19.4387 17.4382C18.8884 20.2982 18.3363 23.167 17.7793 26.0615C16.7129 26.0615 15.6502 26.0615 14.5452 26.0615C15.5128 21.0208 16.4765 16.0005 17.4452 10.9543Z" fill="black" fill-opacity="0.62"/>
</g>
<defs>
<clipPath id="clip0">
<rect x="0.963623" y="0.432983" width="39.6947" height="40.2007" fill="white"/>
</clipPath>
</defs>
</svg>
