<svg width="40" height="42" viewBox="0 0 40 42" fill="none" xmlns="http://www.w3.org/2000/svg">
<path d="M16.7742 6.70662C16.7742 8.04797 15.7327 9.1366 14.4495 9.1366C13.1662 9.1366 12.1248 8.04797 12.1248 6.70662C12.1248 5.36527 13.1662 4.27664 14.4495 4.27664C15.7327 4.27664 16.7742 5.36527 16.7742 6.70662Z" fill="#F9F9F9"/>
<path d="M19.8615 1.87257C18.3303 1.87905 16.8641 2.01837 15.5747 2.25165C11.7792 2.94825 11.0879 4.39651 11.0879 7.07435V10.6124H20.0599V11.7901H7.72173C5.11183 11.7901 2.83049 13.4101 2.11602 16.4913C1.29306 20.0229 1.24967 22.231 2.11602 25.9132C2.75144 28.6591 4.27182 30.6144 6.88018 30.6144H9.51952V25.9197C9.51952 22.8628 12.086 20.1801 15.1314 20.1801H24.5234C27.017 20.1801 29.379 18.053 29.379 15.4659V7.09379C29.379 4.58119 26.9628 2.68905 24.5234 2.27109C22.9859 2.00541 21.3881 1.88553 19.8584 1.89201L19.8615 1.87257ZM15.009 4.71403C15.9358 4.71403 16.6921 5.51107 16.6921 6.49278C16.6921 7.46801 15.9358 8.25208 15.009 8.25208C14.076 8.25208 13.3197 7.46801 13.3197 6.49278C13.3197 5.51269 14.0698 4.71403 15.009 4.71403Z" fill="#4586B9"/>
<path d="M27.6293 35.8664C27.6293 37.2077 26.5878 38.2964 25.3046 38.2964C24.0151 38.2964 22.9736 37.2077 22.9736 35.8664C22.9736 34.525 24.0151 33.4364 25.3046 33.4364C26.5878 33.4364 27.6293 34.525 27.6293 35.8664Z" fill="#F9F9F9"/>
<path d="M30.6562 11.7869V15.9065C30.6562 19.0963 28.0354 21.4064 25.0505 21.4064H15.206C12.7542 21.4064 10.7192 23.9627 10.7192 26.5012V35.335C10.7192 37.8476 12.8316 39.3218 15.206 40.0427C18.0453 40.9029 21.1387 41.0681 24.5359 40.0427C26.794 39.3655 29.0227 38.0048 29.0227 35.335V31.797H20.0631V30.6192H33.5156C36.1193 30.6192 37.0941 28.7336 38.0023 25.918C38.94 23.0134 38.8919 20.2157 38.0023 16.4962C37.3545 13.807 36.1255 11.795 33.5156 11.795L30.6562 11.7869ZM25.1063 34.1589C26.033 34.1589 26.7894 34.943 26.7894 35.9182C26.7894 36.8934 26.0392 37.697 25.1063 37.697C24.1733 37.697 23.4169 36.8934 23.4169 35.9182C23.4169 34.943 24.1733 34.1589 25.1063 34.1589Z" fill="#FFE634"/>
</svg>
