<svg width="58" height="62" viewBox="0 0 58 62" fill="none" xmlns="http://www.w3.org/2000/svg">
<path d="M26.7728 4.47424C11.9863 4.47424 0 17.2872 0 33.0934C0 48.8997 11.9863 61.7126 26.7728 61.7126C41.5593 61.7126 53.5456 48.8997 53.5456 33.0934C53.5456 17.2872 41.5593 4.47424 26.7728 4.47424ZM41.1614 43.954C40.0188 44.7178 35.3759 44.9454 34.2519 44.0724C33.6354 43.5938 33.0716 42.9948 32.5363 42.4244C32.1616 42.0258 31.7364 41.8323 31.4145 41.3996C31.1518 41.0456 30.9714 40.6277 30.6948 40.278C30.2279 39.6915 29.5092 39.1924 28.9408 39.9091C28.0848 40.9873 29.0754 43.1046 27.934 43.91C27.5512 44.1803 27.1649 44.2584 26.6864 44.22L25.6267 44.2714C25.0044 44.2844 24.0184 44.2906 23.3102 44.1542C22.5202 44.0017 21.8677 43.5404 21.1532 43.2019C19.7971 42.559 18.5055 41.6829 17.5224 40.4696C14.8468 37.165 11.2532 32.6204 9.8571 28.4658C9.57 27.612 8.81136 25.9213 9.53056 25.1891C10.5084 24.4296 15.3079 24.2157 16.0567 25.3899C16.3606 25.8673 16.5526 26.5655 16.7678 27.1067C17.0358 27.7813 17.1808 28.4168 17.5995 29.0138C17.9701 29.5433 18.2433 30.0759 18.5298 30.6562C18.8517 31.3078 19.1557 31.9328 19.5472 32.5323C19.8128 32.9403 20.5152 33.7519 20.9589 33.812C22.0423 33.9602 21.975 31.146 21.8944 30.4591C21.8173 29.7969 21.7976 29.0944 21.8179 28.423C21.8353 27.8501 21.8834 27.0429 21.5661 26.5754C21.0488 25.8128 19.8963 26.3832 19.8064 25.3583C19.9967 25.0675 19.9566 24.8096 21.2274 24.362C22.2285 24.0104 22.8752 24.0216 23.5352 24.078C24.8808 24.1933 26.3076 23.804 27.6068 24.2702C28.848 24.7172 28.6561 26.6027 28.6143 27.7323C28.558 29.2742 28.6184 30.7796 28.6143 32.3451C28.6126 33.0575 28.5859 33.7513 29.399 33.693C30.1612 33.639 30.2389 32.9533 30.6025 32.3879C31.1083 31.5992 31.5729 30.7994 32.0879 30.0139C32.7822 28.9518 32.9921 27.7583 33.6458 26.6702C33.8795 26.2815 34.0808 25.4532 34.441 25.1457C34.7136 24.9119 35.2315 25.0341 35.5615 25.0341H36.3463C36.9466 25.0341 37.5591 25.0291 38.1762 25.052C39.0647 25.0849 40.06 24.8667 40.941 25C44.7429 25.5735 36.1624 34.2615 36.609 35.8128C36.9176 36.8841 38.8751 38.0813 39.5815 38.9586C40.5194 40.1273 43.4066 42.4505 41.1614 43.954Z" fill="#4281C8"/>
</svg>
